<?xml version="1.0" standalone="no"?>
<!DOCTYPE svg PUBLIC "-//W3C//DTD SVG 20010904//EN"
 "http://www.w3.org/TR/2001/REC-SVG-20010904/DTD/svg10.dtd">
<svg version="1.0" xmlns="http://www.w3.org/2000/svg"
 width="300.000000pt" height="262.000000pt" viewBox="0 0 300.000000 262.000000"
 preserveAspectRatio="xMidYMid meet">
<metadata>
Created by potrace 1.10, written by Peter Selinger 2001-2011
</metadata>
<g transform="translate(0.000000,262.000000) scale(0.100000,-0.100000)"
fill="#000000" stroke="none">
<path d="M2091 1990 c1 -448 5 -620 13 -620 7 0 12 28 13 79 0 44 3 83 6 88 2
4 5 188 6 407 2 320 0 401 -11 408 -10 7 -10 11 2 21 12 9 14 21 8 52 -11 64
-9 160 4 173 9 9 6 12 -16 12 l-27 0 2 -620z"/>
<path d="M2358 2599 l23 -9 -1 -492 c-1 -271 2 -539 6 -595 5 -77 4 -106 -6
-118 -10 -12 -10 -15 3 -15 8 0 17 10 21 23 3 12 6 291 6 620 l0 597 -37 -1
c-34 0 -35 -1 -15 -10z"/>
<path d="M1708 1973 c1 -236 4 -434 7 -441 3 -7 9 -10 15 -7 6 4 10 155 10
425 l0 419 33 3 c17 2 74 2 125 0 l92 -3 0 -403 c0 -222 3 -425 7 -452 15
-110 21 9 22 439 l2 447 -158 0 -158 0 3 -427z"/>
<path d="M2163 1378 c7 -4 48 -7 92 -6 90 1 76 5 -32 10 -40 2 -67 0 -60 -4z"/>
<path d="M496 1301 c-4 -6 -12 -9 -17 -5 -22 13 -159 -43 -262 -108 -68 -43
-97 -72 -142 -143 -39 -61 -46 -88 -50 -185 -7 -174 85 -307 273 -400 119 -59
318 -74 706 -54 l138 7 24 54 c13 29 24 60 24 68 0 8 5 15 10 15 6 0 10 8 10
18 0 39 16 42 251 42 125 0 234 -3 243 -6 8 -3 12 -12 9 -21 -3 -8 -2 -18 4
-22 5 -3 17 -22 26 -41 10 -19 22 -42 27 -50 6 -8 14 -26 19 -40 l9 -25 556 3
c471 2 556 4 556 16 0 15 62 140 80 162 9 9 -39 11 -227 8 -131 -2 -262 -6
-290 -8 -36 -3 -53 -1 -54 7 -3 59 3 647 8 665 3 13 1 22 -6 22 -14 1 -299 1
-308 0 -5 0 -7 -189 -5 -420 2 -362 1 -420 -12 -420 -8 0 -24 21 -37 47 -19
39 -63 117 -109 193 -5 8 -23 42 -41 75 -17 33 -37 67 -44 75 -7 8 -30 49 -52
90 -22 41 -54 98 -71 126 -18 28 -32 56 -32 62 0 6 -4 12 -8 14 -5 2 -26 35
-47 73 -21 39 -43 73 -49 77 -6 4 -74 8 -151 8 -77 0 -144 -4 -150 -8 -5 -4
-16 -18 -23 -31 -8 -13 -22 -38 -32 -56 -10 -18 -24 -43 -32 -56 -7 -13 -15
-26 -18 -29 -3 -3 -11 -16 -17 -30 -14 -28 -40 -74 -96 -168 -20 -35 -37 -66
-37 -68 0 -3 -8 -18 -19 -32 -20 -29 -68 -113 -85 -150 -12 -24 -104 -73 -171
-91 -94 -25 -202 -6 -284 49 -35 24 -53 46 -74 92 -15 33 -27 66 -27 74 0 7
-5 25 -12 39 -9 19 -9 28 0 37 7 7 12 24 12 38 0 36 52 138 95 185 22 24 80
56 136 74 40 13 229 20 229 9 0 -5 10 -8 23 -8 12 0 39 -9 60 -20 l38 -21 22
27 c12 14 37 41 55 59 39 41 41 56 5 54 -34 -1 -111 14 -178 37 -63 20 -368
33 -379 15z m299 -26 c22 -4 49 -10 60 -14 22 -10 85 -27 128 -36 33 -7 34
-15 2 -45 l-25 -23 -57 17 c-59 18 -251 28 -260 14 -2 -5 -12 -8 -21 -8 -9 0
-39 -12 -67 -26 -27 -15 -60 -32 -73 -38 -12 -6 -25 -19 -28 -28 -3 -10 -10
-18 -15 -18 -5 0 -9 -7 -9 -15 0 -9 -6 -18 -14 -21 -8 -3 -12 -12 -9 -20 3 -8
0 -14 -6 -14 -6 0 -11 -9 -11 -19 0 -10 -6 -21 -14 -24 -28 -11 -34 -150 -9
-206 9 -20 15 -46 14 -58 -2 -16 3 -23 14 -23 12 0 16 -6 12 -20 -3 -13 0 -20
9 -20 8 0 14 -4 14 -9 0 -5 24 -24 53 -43 54 -34 122 -57 170 -58 19 0 26 -4
21 -12 -5 -7 -2 -9 9 -5 9 3 35 11 59 17 24 6 52 15 63 19 11 5 41 16 66 25
48 17 94 60 125 115 10 19 34 57 52 85 17 28 32 58 32 67 0 10 3 19 8 21 12 5
56 78 86 141 21 45 30 56 40 48 11 -9 12 -6 8 15 -2 14 -1 29 4 33 5 3 21 27
34 54 14 26 28 47 32 47 5 0 8 6 8 13 0 7 9 20 20 30 18 15 39 17 142 16 127
-2 158 -12 158 -50 0 -10 3 -19 8 -21 4 -1 25 -38 47 -81 21 -43 47 -85 57
-94 10 -9 18 -26 18 -38 0 -13 7 -28 15 -35 8 -7 15 -18 15 -25 0 -7 6 -18 14
-24 8 -7 24 -31 36 -54 12 -23 26 -45 32 -48 5 -3 10 -16 11 -27 1 -12 5 -22
9 -22 4 0 8 -4 8 -9 0 -6 13 -30 30 -54 16 -25 30 -50 30 -56 0 -6 5 -11 10
-11 6 0 10 -9 10 -20 0 -11 4 -20 9 -20 8 0 61 -95 61 -111 0 -5 -49 -9 -109
-9 -101 0 -110 2 -116 20 -3 11 -11 20 -16 20 -5 0 -9 6 -9 14 0 7 -7 19 -15
26 -8 7 -15 21 -15 31 0 11 -5 19 -11 19 -6 0 -9 6 -6 14 3 8 -5 23 -17 35
-22 21 -31 21 -251 21 -173 -1 -237 -5 -262 -15 -19 -8 -32 -18 -30 -23 3 -4
-5 -30 -19 -57 -13 -28 -24 -57 -24 -66 0 -23 -39 -40 -85 -38 -22 1 -74 -1
-115 -5 -99 -9 -338 -10 -419 -2 -91 9 -129 19 -241 69 -84 37 -191 156 -212
234 -15 57 -20 200 -8 208 5 3 10 13 10 22 0 16 67 115 82 121 4 2 8 10 8 17
0 8 9 17 20 20 11 3 20 10 20 15 0 4 8 10 18 14 17 5 52 26 62 36 12 12 100
50 128 56 18 4 32 11 32 16 0 5 16 6 35 2 22 -4 35 -2 35 4 0 17 184 21 285 7z
m1592 -358 c1 -306 3 -330 20 -342 14 -11 71 -14 271 -15 156 0 252 -4 252
-10 0 -16 -40 -84 -58 -97 -19 -15 -717 -19 -726 -4 -7 10 -9 158 -7 534 l1
268 123 -3 122 -3 2 -328z"/>
<path d="M1450 1056 c0 -12 109 -204 137 -242 13 -17 23 -38 23 -47 0 -10 4
-17 9 -17 15 0 7 41 -17 87 -12 23 -22 48 -22 56 0 8 -9 22 -20 32 -11 10 -20
22 -20 27 0 12 -73 108 -82 108 -4 0 -8 -2 -8 -4z"/>
<path d="M1408 1020 c-10 -13 -18 -35 -18 -47 0 -13 -3 -23 -8 -23 -4 0 -15
-17 -25 -37 -10 -21 -27 -55 -38 -76 -40 -78 -1 -103 154 -99 89 2 107 5 107
18 0 13 -17 15 -125 12 -109 -3 -125 -1 -125 13 0 8 23 59 51 112 33 64 49
107 47 125 l-3 27 -17 -25z"/>
<path d="M253 168 c-12 -6 -27 -24 -34 -40 -10 -25 -9 -33 8 -56 29 -39 68
-50 104 -30 25 15 32 15 58 2 32 -16 57 -10 71 17 13 23 -2 64 -28 78 -25 13
-79 -19 -84 -51 -2 -18 -10 -24 -36 -26 -39 -4 -62 12 -62 43 0 33 24 48 64
41 39 -8 56 8 27 23 -24 14 -59 13 -88 -1z m181 -64 c12 -31 6 -44 -19 -44
-33 0 -45 28 -20 46 24 18 32 18 39 -2z"/>
<path d="M489 176 c-2 -2 -2 -34 -1 -70 3 -49 7 -66 18 -66 11 0 14 16 14 70
0 52 -3 70 -13 70 -8 0 -16 -2 -18 -4z"/>
<path d="M543 110 c-1 -53 3 -70 13 -70 10 0 14 16 16 55 0 30 1 61 2 67 1 7
-6 14 -15 16 -13 2 -16 -8 -16 -68z"/>
<path d="M904 169 c-3 -6 -2 -15 3 -20 5 -5 7 -27 5 -49 -4 -34 -7 -40 -28
-40 -19 0 -24 5 -24 25 0 13 8 28 18 34 16 9 16 11 -3 25 -22 17 -45 21 -45 7
0 -14 -31 -22 -44 -12 -15 12 -52 -3 -64 -26 -10 -17 -12 -17 -32 5 -28 29
-65 29 -86 -3 -30 -46 13 -94 72 -79 33 9 20 24 -22 24 -46 0 -44 17 4 23 30
4 41 1 59 -19 24 -26 83 -37 90 -16 3 8 -6 12 -25 12 -19 0 -32 6 -36 17 -9
23 8 37 48 39 32 1 34 -2 40 -37 6 -39 27 -55 53 -40 9 4 24 6 34 4 17 -5 19
1 18 66 -1 52 -5 71 -15 71 -7 0 -16 -5 -20 -11z"/>
<path d="M1342 173 c-7 -3 -22 -24 -33 -46 -12 -23 -28 -50 -37 -60 -25 -28
-1 -42 30 -17 31 24 83 27 92 4 4 -11 17 -14 48 -12 41 3 43 5 40 31 -2 15 2
34 8 42 6 8 9 19 5 25 -3 5 1 13 9 16 26 10 18 24 -11 24 -40 -1 -67 -40 -51
-75 8 -19 8 -29 0 -37 -8 -8 -18 1 -39 35 -45 72 -47 75 -61 70z m28 -69 c0
-8 -9 -14 -20 -14 -19 0 -27 19 -14 33 10 9 34 -4 34 -19z"/>
<path d="M1610 167 c0 -7 5 -18 11 -24 7 -7 -6 -10 -43 -9 l-53 1 -3 -47 c-3
-43 -1 -48 18 -48 18 0 21 5 18 33 -3 28 0 32 25 35 25 3 27 1 27 -32 0 -28 4
-36 19 -36 16 0 17 6 13 50 -3 29 0 55 7 63 6 8 8 17 4 20 -11 12 -43 7 -43
-6z"/>
<path d="M1977 173 c-2 -4 -2 -36 1 -70 4 -58 6 -62 33 -68 15 -4 48 -3 73 0
l46 7 -1 69 c-1 52 -5 69 -15 69 -10 0 -14 -16 -14 -61 l0 -60 -47 3 -46 3 -1
54 c-1 49 -16 77 -29 54z"/>
<path d="M2346 113 c1 -51 6 -69 17 -71 12 -2 14 9 11 65 -2 48 -7 69 -17 71
-11 2 -13 -12 -11 -65z"/>
<path d="M2680 156 c0 -19 -4 -22 -25 -18 -30 5 -51 -10 -57 -43 -7 -33 27
-69 56 -61 11 3 29 6 39 6 14 0 17 10 17 70 0 56 -3 70 -15 70 -9 0 -15 -9
-15 -24z m-2 -69 c3 -23 0 -27 -22 -27 -21 0 -26 5 -26 23 0 13 3 27 7 31 15
14 38 0 41 -27z"/>
<path d="M2407 152 c-3 -4 -3 -29 0 -55 6 -50 27 -73 53 -57 12 7 12 10 -3 16
-23 8 -23 60 1 73 16 10 16 10 0 11 -10 0 -18 5 -18 10 0 12 -27 14 -33 2z"/>
<path d="M2494 125 c-29 -29 -30 -49 -4 -75 20 -20 45 -25 74 -14 25 10 8 24
-30 24 -19 0 -34 5 -34 10 0 6 4 10 9 10 5 0 7 9 4 20 -4 14 0 20 12 20 12 0
15 -5 10 -20 -5 -15 -2 -20 14 -20 26 0 34 15 22 39 -17 30 -50 33 -77 6z"/>
<path d="M972 128 c-34 -34 2 -102 48 -91 45 10 58 52 27 91 -12 15 -59 16
-75 0z m56 -20 c21 -21 14 -48 -12 -48 -28 0 -42 26 -25 46 14 17 22 17 37 2z"/>
<path d="M1083 88 c0 -40 3 -48 16 -46 11 3 15 12 13 29 -3 28 20 55 38 44 5
-3 10 -22 10 -41 0 -27 4 -34 20 -34 18 0 20 4 14 43 -8 50 -16 56 -70 55
l-40 0 -1 -50z"/>
<path d="M1688 129 c-18 -10 -23 -44 -12 -73 7 -18 84 -23 84 -6 0 6 -10 10
-23 10 -13 0 -28 5 -34 11 -18 18 -3 39 28 39 19 0 29 5 29 15 0 17 -45 20
-72 4z"/>
<path d="M1799 127 c-23 -18 -30 -46 -16 -67 9 -16 23 -20 64 -20 l53 0 0 50
0 50 -42 0 c-24 0 -50 -6 -59 -13z m61 -42 c0 -18 -5 -25 -19 -25 -11 0 -23 5
-26 10 -11 18 3 40 25 40 15 0 20 -7 20 -25z"/>
<path d="M2173 132 c-20 -3 -23 -9 -23 -48 0 -38 3 -45 18 -42 11 3 16 12 14
27 -1 13 3 30 9 37 18 21 36 0 31 -36 -4 -26 -1 -30 18 -30 18 0 21 5 18 32
-2 27 0 33 17 33 17 0 19 -6 17 -32 -2 -25 1 -33 12 -33 12 0 16 10 16 38 0
20 -4 42 -8 48 -6 11 -85 14 -139 6z"/>
</g>
</svg>
