<?xml version="1.0" standalone="no"?>
<!DOCTYPE svg PUBLIC "-//W3C//DTD SVG 20010904//EN"
 "http://www.w3.org/TR/2001/REC-SVG-20010904/DTD/svg10.dtd">
<svg version="1.0" xmlns="http://www.w3.org/2000/svg"
 width="300.000000pt" height="262.000000pt" viewBox="0 0 300.000000 262.000000"
 preserveAspectRatio="xMidYMid meet">
<metadata>
Created by potrace 1.10, written by Peter Selinger 2001-2011
</metadata>
<g transform="translate(0.000000,262.000000) scale(0.050000,-0.050000)"
fill="#000000" stroke="none">
<path d="M4180 3975 c0 -1266 4 -1342 67 -1240 5 8 129 10 276 5 147 -6 274
-8 282 -4 8 3 15 566 15 1250 l0 1244 -320 0 -320 0 0 -1255z m445 1140 c12
-34 -3 -1649 -16 -1729 -16 -100 -160 -116 -233 -25 -37 44 -38 82 -32 743 3
416 -1 699 -13 702 -10 4 -11 18 -2 32 13 21 19 21 34 -1 12 -18 14 -9 6 26
-7 29 -3 71 8 92 12 22 24 72 26 112 l5 73 104 0 c66 0 108 -9 113 -25z m-19
-1909 c15 3 66 -175 73 -251 0 -9 -22 -26 -51 -39 l-51 -24 46 -17 c43 -16 44
-19 12 -37 -19 -11 -44 -15 -54 -8 -11 6 -72 12 -135 13 -64 2 -102 7 -86 13
32 11 59 43 60 71 0 10 -13 12 -29 6 -17 -6 -35 -3 -40 6 -18 28 11 82 36 68
13 -7 8 4 -11 23 -23 25 -43 31 -61 18 -15 -10 -10 -2 11 17 24 22 35 51 28
75 -15 58 70 99 163 78 39 -8 79 -14 89 -12z m34 -418 c0 -5 -56 -7 -125 -5
-120 3 -122 3 -35 15 85 12 160 7 160 -10z"/>
<path d="M3413 4800 c-17 -57 21 -2008 40 -2014 14 -5 28 31 37 93 16 117 39
117 58 1 20 -125 44 -94 41 52 -1 88 6 135 23 141 18 7 19 27 6 73 -26 89 37
143 148 128 96 -13 107 -24 72 -67 -19 -23 -20 -30 -3 -20 16 10 30 2 39 -21
7 -20 23 -43 35 -51 14 -9 11 -14 -6 -15 -22 0 -23 -6 -5 -28 18 -22 18 -31
-2 -38 -18 -8 -17 -11 5 -12 40 -2 40 -97 -1 -122 -24 -16 -21 -19 15 -20 25
0 45 -12 45 -28 0 -46 57 -82 61 -39 7 68 29 1957 24 1977 -6 20 -626 30 -632
10z m447 -796 c0 -421 -6 -582 -24 -600 -31 -31 -161 -31 -192 0 -19 19 -24
19 -24 0 0 -13 -7 -24 -15 -24 -33 0 -29 220 4 232 27 11 31 76 31 490 l0 478
110 0 110 0 0 -576z"/>
<path d="M2375 4355 c-6 -36 -5 -73 1 -84 14 -23 41 43 43 104 2 69 -33 53
-44 -20z"/>
<path d="M2638 4326 c-6 -63 7 -1238 14 -1249 23 -38 58 12 63 88 4 74 13 140
25 175 2 6 3 186 1 400 -1 215 6 403 17 418 30 46 226 53 289 12 l53 -35 0 63
c0 88 48 79 79 -15 19 -57 23 -208 17 -581 -6 -377 -2 -508 16 -523 32 -27 54
421 45 901 l-7 350 -305 6 c-168 3 -306 -2 -307 -10z"/>
<path d="M2373 3155 c-18 -66 -16 -75 17 -75 20 0 30 20 30 60 0 70 -30 80
-47 15z"/>
<path d="M1062 2618 c-220 -26 -427 -107 -682 -268 -460 -290 -435 -1066 43
-1342 366 -210 611 -243 1537 -202 171 7 316 14 323 14 6 0 23 29 37 65 13 36
31 83 40 105 69 168 89 210 99 212 159 22 952 -1 957 -29 4 -18 45 -106 93
-195 l85 -161 1104 0 c1107 1 1142 3 1142 52 0 15 35 97 78 182 l78 155 -283
-13 c-425 -19 -855 -19 -871 0 -8 9 -7 318 1 687 8 368 11 673 6 678 -5 4
-150 8 -324 7 l-315 -1 2 -842 c2 -935 2 -934 -118 -697 -41 80 -95 181 -121
225 -27 44 -118 202 -203 350 -85 149 -172 299 -193 335 -20 36 -54 94 -74
130 -21 36 -61 106 -90 155 -30 50 -80 141 -113 204 -76 146 -55 138 -393 140
-299 2 -364 -17 -367 -107 0 -11 -176 -321 -259 -457 -16 -25 -240 -415 -299
-520 -10 -16 -30 -56 -45 -89 -82 -177 -371 -309 -626 -285 -493 46 -696 538
-397 962 168 238 641 336 933 194 l97 -48 117 127 c136 148 136 149 -15 167
-64 7 -177 31 -251 54 -110 32 -486 82 -565 75 -11 -1 -87 -10 -168 -19z m47
-197 c9 -14 -115 -60 -156 -59 -9 0 -32 -18 -52 -40 -19 -23 -42 -35 -51 -27
-8 8 -8 -7 0 -35 12 -41 10 -45 -12 -25 -35 33 -78 32 -78 -3 0 -15 -13 -33
-30 -39 -16 -7 -30 -34 -30 -61 0 -27 -9 -52 -20 -55 -10 -4 -22 -40 -25 -80
-3 -40 -12 -69 -21 -63 -9 5 -15 -2 -12 -17 2 -15 -2 -42 -10 -61 -9 -18 -12
-100 -9 -182 6 -125 2 -148 -23 -140 -18 6 -14 -4 10 -23 22 -18 41 -41 43
-52 1 -10 3 -33 5 -49 1 -17 23 -39 49 -49 51 -19 93 -124 55 -137 -32 -11
-27 -64 6 -64 15 0 33 14 39 30 7 17 21 30 32 30 29 0 26 -61 -4 -88 -14 -12
-22 -20 -18 -18 9 5 63 -47 63 -61 0 -6 -31 -9 -70 -7 -38 2 -70 11 -70 19 0
8 -21 15 -46 15 -25 0 -56 10 -68 22 -13 13 -44 33 -69 46 -26 14 -46 39 -44
58 1 18 -14 38 -33 44 -60 19 -120 83 -120 127 0 32 -11 41 -45 38 -35 -4 -46
6 -51 45 -4 34 0 42 12 24 21 -31 76 21 56 53 -7 11 -1 24 13 30 16 6 16 10 2
11 -12 1 -33 -11 -46 -27 -20 -24 -29 -24 -62 5 -50 42 -49 77 1 104 37 20 38
26 11 65 -22 31 -24 49 -8 69 16 19 15 34 -2 55 -19 22 -15 33 18 50 27 15 41
16 41 2 0 -12 13 -21 29 -21 18 0 25 12 18 30 -6 17 -24 30 -39 30 -44 0 -33
36 22 72 28 18 50 44 50 59 0 14 45 55 100 91 73 47 94 71 79 89 -19 24 56 61
78 38 6 -5 -1 -9 -14 -9 -13 0 -23 -9 -23 -20 0 -28 23 -24 70 11 34 26 35 33
10 49 -24 15 -22 18 10 19 80 1 110 8 110 26 0 9 8 13 17 7 9 -6 48 5 86 25
71 36 210 51 226 24z m1950 -44 c-18 -33 -15 -42 20 -51 22 -6 41 -23 41 -38
0 -16 17 -28 37 -28 36 0 74 -60 124 -195 15 -41 42 -70 72 -77 26 -7 47 -24
47 -38 0 -14 14 -37 32 -51 18 -16 28 -46 22 -73 -4 -25 4 -56 19 -68 14 -12
22 -31 16 -40 -6 -10 -1 -18 12 -18 17 0 16 -10 -4 -34 -18 -23 -19 -29 -2
-19 14 9 25 6 25 -7 0 -12 8 -17 19 -11 16 10 47 -49 50 -95 1 -8 15 -24 31
-34 25 -16 26 -25 3 -62 -39 -63 0 -87 62 -38 32 25 57 33 65 20 7 -11 -2 -26
-19 -32 -17 -7 -31 -33 -31 -59 0 -72 -25 -73 -152 -8 -97 49 -127 56 -173 40
-51 -17 -66 46 -23 97 15 17 -35 82 -63 82 -16 0 -29 7 -29 17 0 9 18 15 39
15 39 -2 49 36 11 41 -55 7 -57 11 -14 28 26 10 41 28 34 39 -7 11 2 20 19 20
17 0 31 8 31 19 0 32 -40 46 -68 23 -37 -31 -52 -6 -31 51 24 63 24 87 0 87
-10 0 -24 -18 -31 -40 -21 -67 -56 -47 -45 26 10 57 1 76 -67 141 -43 41 -78
84 -78 95 0 12 -18 15 -40 8 -23 -7 -40 -4 -40 9 0 11 9 21 20 21 31 0 24 40
-9 53 -17 6 -44 -3 -62 -21 -34 -34 -89 -43 -89 -14 0 9 14 28 30 42 34 28 40
60 10 60 -11 0 -20 -13 -20 -30 0 -16 -14 -30 -31 -30 -16 0 -35 14 -42 30
-16 41 -43 38 -40 -5 2 -19 20 -49 41 -67 27 -22 34 -44 24 -70 -14 -36 -16
-36 -48 7 l-34 44 -48 -69 c-38 -57 -43 -75 -22 -100 14 -17 16 -30 5 -30 -12
0 -26 -23 -33 -51 -7 -28 -21 -46 -30 -40 -9 6 -23 -26 -30 -69 -7 -44 -21
-80 -32 -80 -11 0 -20 -13 -20 -28 0 -16 -8 -32 -18 -35 -11 -4 -2 -41 18 -83
46 -93 34 -132 -43 -148 -48 -9 -53 -16 -34 -40 32 -38 -14 -69 -78 -53 -26 7
-45 2 -45 -11 0 -12 9 -22 20 -22 11 0 20 -10 20 -22 0 -13 -17 -18 -39 -13
-28 8 -35 3 -26 -21 7 -19 4 -26 -10 -17 -13 8 -43 -20 -71 -68 -70 -117 -164
-175 -264 -163 -64 8 -72 13 -40 25 34 14 35 16 5 18 -19 0 -35 11 -35 22 0
13 17 16 41 9 22 -7 39 -6 37 3 -8 49 6 108 32 134 17 17 30 38 30 47 0 9 16
32 35 50 55 52 85 93 85 115 0 12 13 21 29 21 15 0 34 18 41 40 7 22 25 40 39
40 15 0 37 28 49 62 22 65 13 107 -19 87 -11 -6 -19 4 -19 22 0 21 11 29 30
22 28 -11 170 238 170 299 0 42 74 109 108 96 26 -10 30 -2 19 50 -9 48 -5 63
21 65 17 1 43 3 57 5 14 1 25 27 26 57 1 80 34 101 173 111 68 5 137 22 152
37 39 39 69 14 43 -36z m1585 -208 c3 -115 2 -334 -4 -485 -12 -325 -7 -385
32 -370 17 6 28 -3 28 -22 0 -18 -9 -32 -20 -32 -11 0 -20 -13 -20 -30 0 -19
19 -30 50 -30 56 0 70 -39 15 -42 -19 -2 -42 -1 -51 0 -10 2 -11 -6 -4 -18 7
-11 20 -16 28 -11 9 5 44 -23 79 -62 35 -39 50 -66 33 -60 -16 7 -30 2 -30 -9
0 -11 -25 -18 -55 -14 -31 3 -53 17 -50 31 3 14 -13 25 -35 25 -22 0 -40 -12
-40 -26 0 -15 -29 -28 -72 -31 -80 -5 -157 58 -139 115 16 50 19 213 4 237 -7
11 3 27 22 34 29 11 30 16 4 31 -24 15 -30 100 -35 479 l-7 461 92 0 c50 0 91
9 91 20 0 11 17 20 39 20 35 0 39 -18 45 -211z m-1654 -244 c41 -74 104 -180
141 -235 106 -160 114 -153 -191 -153 -305 1 -312 5 -238 136 88 156 158 303
158 331 0 32 18 56 41 56 9 0 49 -61 89 -135z m544 -645 c6 -22 21 -41 33 -42
104 -9 126 -4 159 37 20 25 45 45 55 45 30 0 22 -75 -8 -86 -15 -6 -32 -29
-38 -52 -15 -57 31 -55 72 3 26 38 31 39 32 10 1 -19 -10 -35 -24 -36 -15 0
-11 -11 10 -27 19 -14 35 -39 35 -55 0 -79 -128 -108 -151 -34 -10 32 -17 36
-30 15 -13 -21 -20 -19 -31 10 -8 20 -5 42 6 49 10 7 25 29 32 49 13 33 10 34
-31 5 -54 -38 -75 -39 -75 -5 0 15 -27 47 -61 71 -33 25 -55 54 -48 64 19 32
52 21 63 -21z m-2424 -273 c24 -9 27 -17 9 -27 -29 -18 -99 -2 -99 22 0 21 43
23 90 5z"/>
<path d="M3354 1885 c-13 -21 21 -105 42 -105 34 0 41 25 19 72 -22 48 -45 61
-61 33z"/>
<path d="M469 311 c-107 -107 -18 -265 137 -243 109 16 132 16 206 1 117 -24
173 102 82 188 -69 64 -194 14 -194 -78 0 -56 -136 -78 -173 -28 -60 82 -1
163 101 138 66 -17 102 5 71 43 -40 47 -174 35 -230 -21z m407 -136 c8 -42
-50 -69 -80 -39 -30 30 -3 88 39 80 19 -3 38 -22 41 -41z"/>
<path d="M976 345 c-6 -13 -5 -118 2 -230 1 -19 16 -35 32 -35 24 0 30 29 30
140 0 127 -34 194 -64 125z"/>
<path d="M1080 220 c0 -111 6 -140 30 -140 17 0 30 14 30 30 0 40 14 38 75
-10 52 -41 98 -49 153 -28 48 18 17 48 -49 48 -33 0 -59 9 -59 20 0 44 145 21
192 -30 30 -32 68 -50 107 -50 78 0 84 55 6 64 -100 11 -88 96 14 96 72 0 81
-5 81 -49 0 -65 55 -117 108 -103 23 6 58 12 77 12 30 0 35 20 35 141 0 124
-4 141 -35 135 -28 -5 -35 -28 -35 -116 0 -97 -5 -110 -40 -110 -47 0 -46 66
1 102 38 29 37 48 -2 48 -16 0 -36 14 -42 31 -11 27 -17 27 -61 -2 -29 -19
-69 -28 -95 -21 -30 7 -64 -3 -97 -28 -62 -49 -66 -49 -119 0 -56 53 -67 51
-138 -20 -78 -78 -82 -76 -66 30 12 83 10 90 -29 90 -39 0 -42 -11 -42 -140z"/>
<path d="M2656 333 c-15 -15 -44 -64 -65 -110 -20 -46 -45 -83 -54 -83 -9 0
-17 -18 -17 -40 0 -51 41 -51 100 0 55 48 131 52 156 9 30 -55 195 -32 189 27
-3 25 13 83 35 129 50 102 51 95 -17 95 -86 0 -137 -66 -109 -141 21 -56 6
-94 -29 -72 -16 11 -74 122 -92 178 -14 42 -60 45 -97 8z"/>
<path d="M3216 349 c-7 -7 -8 -26 -2 -41 8 -22 -11 -28 -83 -28 l-93 0 6 -105
c7 -129 62 -152 72 -30 6 65 13 75 57 75 43 0 49 -8 44 -55 -7 -69 15 -107 54
-92 23 9 29 38 26 114 -3 57 -1 116 4 133 9 30 -61 54 -85 29z"/>
<path d="M3953 347 c-27 -28 -14 -242 17 -267 26 -22 259 -17 282 5 31 31 10
265 -23 265 -34 0 -39 -14 -36 -115 l2 -115 -87 0 -88 0 0 120 c0 114 -23 151
-67 107z"/>
<path d="M4683 221 c-3 -128 0 -141 36 -141 53 0 53 265 0 276 -26 4 -33 -19
-36 -135z"/>
<path d="M5358 351 c-2 -6 -4 -22 -5 -36 -2 -14 -28 -28 -58 -31 -109 -13
-146 -155 -53 -205 46 -25 177 -4 180 28 12 138 -1 244 -30 249 -18 4 -33 2
-34 -5z m-8 -181 c0 -26 -15 -42 -45 -46 -37 -6 -45 3 -45 46 0 43 8 52 45 46
30 -4 45 -20 45 -46z"/>
<path d="M4815 304 c-20 -23 -25 -47 -14 -74 9 -22 17 -64 18 -94 1 -60 65
-94 110 -57 19 16 40 16 77 -1 54 -25 154 -10 154 22 0 11 -31 20 -70 20 -38
0 -70 9 -70 20 0 11 32 20 71 20 89 0 92 70 5 119 -65 36 -156 -30 -156 -112
0 -28 -12 -47 -30 -47 -38 0 -39 76 -2 118 25 28 23 36 -17 66 -44 32 -48 32
-76 0z"/>
<path d="M1949 251 c-60 -60 -61 -90 -8 -147 53 -57 109 -56 170 5 45 45 49
46 49 10 0 -26 14 -39 41 -39 31 0 41 12 38 45 -6 81 0 98 36 91 23 -4 38 -31
45 -76 15 -103 68 -93 76 14 8 104 -45 147 -161 131 -65 -8 -75 -16 -75 -62
l0 -53 -52 65 c-61 78 -94 81 -159 16z m121 -81 c0 -60 -78 -54 -87 7 -5 38 2
45 40 40 31 -5 47 -20 47 -47z"/>
<path d="M3405 278 c-58 -22 -92 -107 -64 -159 29 -55 109 -70 168 -31 30 19
54 24 61 12 25 -40 224 -24 235 19 38 142 -71 213 -211 138 -22 -12 -46 -13
-60 -1 -43 32 -83 39 -129 22z m135 -96 c0 -39 -64 -67 -112 -48 -29 11 -37
50 -15 73 32 31 127 13 127 -25z m170 -11 c0 -44 -28 -58 -68 -33 -38 24 -11
87 33 78 19 -4 35 -24 35 -45z"/>
<path d="M4300 199 c0 -43 0 -86 0 -94 0 -8 16 -15 35 -15 26 0 35 16 35 60 0
41 11 61 35 66 28 6 35 -7 35 -61 0 -78 12 -97 52 -81 17 6 28 39 28 80 0 55
7 68 35 62 26 -5 33 -22 28 -71 -5 -55 1 -65 35 -65 33 0 42 13 42 61 0 120
-22 135 -200 136 l-160 1 0 -79z"/>
</g>
</svg>
